<?xml version="1.0" encoding="utf-8"?>
<!-- Generator: Adobe Illustrator 21.0.1, SVG Export Plug-In . SVG Version: 6.00 Build 0)  -->
<svg version="1.1" id="rainclouds" xmlns="http://www.w3.org/2000/svg" xmlns:xlink="http://www.w3.org/1999/xlink" x="0px" y="0px"
	 viewBox="0 0 1341 252" style="enable-background:new 0 0 1341 252;" xml:space="preserve">
<style type="text/css">
	.st0{fill:#C1C6D1;}
	.st1{fill:#B1B6BF;}
	.st2{fill:#D3D9E3;}
</style>
<path class="st0" d="M217.5,225.5c55,0,247,7,310-83c57,56,175,89,261,29s119-93,110-164c-8.8-69.1-103-57-103-57h-773
	C22.5-49.5-54.5,225.5,217.5,225.5z"/>
<path class="st1" d="M1068.9,215c-76.2,0-342.2,7-429.5-83c-79,56-242.4,89-361.6,29S113,68,125.5-3c12.2-69.1,142.7-57,142.7-57
	h1070.9C1339.1-60,1445.7,215,1068.9,215z"/>
<path class="st2" d="M0,154c0,0,606,60,1027-182c0,1-1027,0-1027,0V154z"/>
</svg>
